<mxfile host="app.diagrams.net" modified="2021-06-11T03:13:27.929Z" agent="5.0 (Windows NT 10.0; Win64; x64) AppleWebKit/537.36 (KHTML, like Gecko) Chrome/91.0.4472.101 Safari/537.36" etag="Qj62RRh5uDhveU2s-Fd2" version="14.6.13" type="github">
  <diagram id="prtHgNgQTEPvFCAcTncT" name="Page-1">
    <mxGraphModel dx="1673" dy="896" grid="1" gridSize="10" guides="1" tooltips="1" connect="1" arrows="1" fold="1" page="1" pageScale="1" pageWidth="827" pageHeight="1169" math="0" shadow="0">
      <root>
        <mxCell id="0" />
        <mxCell id="1" parent="0" />
        <mxCell id="Ih-qkRP66JNXUkjLN9Hf-38" style="edgeStyle=orthogonalEdgeStyle;curved=1;rounded=0;orthogonalLoop=1;jettySize=auto;html=1;exitX=0;exitY=1;exitDx=0;exitDy=0;entryX=0;entryY=1;entryDx=0;entryDy=0;startArrow=none;startFill=0;endArrow=block;endFill=1;" edge="1" parent="1" source="Ih-qkRP66JNXUkjLN9Hf-1" target="Ih-qkRP66JNXUkjLN9Hf-6">
          <mxGeometry relative="1" as="geometry">
            <Array as="points">
              <mxPoint x="80" y="370" />
              <mxPoint x="150" y="370" />
              <mxPoint x="150" y="690" />
              <mxPoint x="497" y="690" />
            </Array>
          </mxGeometry>
        </mxCell>
        <mxCell id="Ih-qkRP66JNXUkjLN9Hf-1" value="capital_construction" style="shape=hexagon;perimeter=hexagonPerimeter2;whiteSpace=wrap;html=1;fixedSize=1;fontFamily=Helvetica;fontSize=12;fontColor=#000000;align=center;strokeColor=#b46504;fillColor=#fad7ac;" vertex="1" parent="1">
          <mxGeometry x="80" y="60" width="120" height="60" as="geometry" />
        </mxCell>
        <mxCell id="Ih-qkRP66JNXUkjLN9Hf-2" value="adv_weather" style="ellipse;whiteSpace=wrap;html=1;aspect=fixed;fontFamily=Helvetica;fontSize=12;fontColor=#ffffff;align=center;strokeColor=#2D7600;fillColor=#60a917;" vertex="1" parent="1">
          <mxGeometry x="370" y="480" width="120" height="60" as="geometry" />
        </mxCell>
        <mxCell id="Ih-qkRP66JNXUkjLN9Hf-39" style="edgeStyle=orthogonalEdgeStyle;curved=1;rounded=0;orthogonalLoop=1;jettySize=auto;html=1;exitX=0.5;exitY=0;exitDx=0;exitDy=0;entryX=0.5;entryY=1;entryDx=0;entryDy=0;startArrow=none;startFill=0;endArrow=block;endFill=1;" edge="1" parent="1" source="Ih-qkRP66JNXUkjLN9Hf-3" target="Ih-qkRP66JNXUkjLN9Hf-8">
          <mxGeometry relative="1" as="geometry" />
        </mxCell>
        <mxCell id="Ih-qkRP66JNXUkjLN9Hf-3" value="adv_core" style="shape=hexagon;perimeter=hexagonPerimeter2;whiteSpace=wrap;html=1;fixedSize=1;fontFamily=Helvetica;fontSize=12;fontColor=#000000;align=center;strokeColor=#0e8088;fillColor=#b0e3e6;" vertex="1" parent="1">
          <mxGeometry x="354" y="180" width="120" height="60" as="geometry" />
        </mxCell>
        <mxCell id="Ih-qkRP66JNXUkjLN9Hf-29" style="edgeStyle=orthogonalEdgeStyle;rounded=0;orthogonalLoop=1;jettySize=auto;html=1;entryX=1;entryY=0.5;entryDx=0;entryDy=0;startArrow=none;startFill=0;endArrow=block;endFill=1;curved=1;exitX=1;exitY=0;exitDx=0;exitDy=0;" edge="1" parent="1" source="Ih-qkRP66JNXUkjLN9Hf-4" target="Ih-qkRP66JNXUkjLN9Hf-8">
          <mxGeometry relative="1" as="geometry" />
        </mxCell>
        <mxCell id="Ih-qkRP66JNXUkjLN9Hf-32" style="edgeStyle=orthogonalEdgeStyle;rounded=0;orthogonalLoop=1;jettySize=auto;html=1;exitX=0.5;exitY=0;exitDx=0;exitDy=0;startArrow=none;startFill=0;endArrow=block;endFill=1;curved=1;" edge="1" parent="1" source="Ih-qkRP66JNXUkjLN9Hf-4" target="Ih-qkRP66JNXUkjLN9Hf-3">
          <mxGeometry relative="1" as="geometry" />
        </mxCell>
        <mxCell id="Ih-qkRP66JNXUkjLN9Hf-33" style="edgeStyle=orthogonalEdgeStyle;curved=1;rounded=0;orthogonalLoop=1;jettySize=auto;html=1;exitX=0.25;exitY=1;exitDx=0;exitDy=0;entryX=0.75;entryY=1;entryDx=0;entryDy=0;startArrow=none;startFill=0;endArrow=block;endFill=1;" edge="1" parent="1" source="Ih-qkRP66JNXUkjLN9Hf-4" target="Ih-qkRP66JNXUkjLN9Hf-2">
          <mxGeometry relative="1" as="geometry" />
        </mxCell>
        <mxCell id="Ih-qkRP66JNXUkjLN9Hf-34" style="edgeStyle=orthogonalEdgeStyle;curved=1;rounded=0;orthogonalLoop=1;jettySize=auto;html=1;exitX=1;exitY=0.75;exitDx=0;exitDy=0;entryX=0;entryY=0.25;entryDx=0;entryDy=0;startArrow=none;startFill=0;endArrow=block;endFill=1;" edge="1" parent="1" source="Ih-qkRP66JNXUkjLN9Hf-4" target="Ih-qkRP66JNXUkjLN9Hf-1">
          <mxGeometry relative="1" as="geometry">
            <Array as="points">
              <mxPoint x="740" y="465" />
              <mxPoint x="740" y="760" />
              <mxPoint x="60" y="760" />
              <mxPoint x="60" y="75" />
            </Array>
          </mxGeometry>
        </mxCell>
        <mxCell id="Ih-qkRP66JNXUkjLN9Hf-35" style="edgeStyle=orthogonalEdgeStyle;curved=1;rounded=0;orthogonalLoop=1;jettySize=auto;html=1;exitX=0.75;exitY=1;exitDx=0;exitDy=0;startArrow=none;startFill=0;endArrow=block;endFill=1;entryX=0.75;entryY=0;entryDx=0;entryDy=0;" edge="1" parent="1" source="Ih-qkRP66JNXUkjLN9Hf-4" target="Ih-qkRP66JNXUkjLN9Hf-6">
          <mxGeometry relative="1" as="geometry" />
        </mxCell>
        <mxCell id="Ih-qkRP66JNXUkjLN9Hf-37" style="edgeStyle=orthogonalEdgeStyle;curved=1;rounded=0;orthogonalLoop=1;jettySize=auto;html=1;exitX=0;exitY=0;exitDx=0;exitDy=0;entryX=0.75;entryY=1;entryDx=0;entryDy=0;startArrow=none;startFill=0;endArrow=block;endFill=1;" edge="1" parent="1" source="Ih-qkRP66JNXUkjLN9Hf-4" target="Ih-qkRP66JNXUkjLN9Hf-7">
          <mxGeometry relative="1" as="geometry" />
        </mxCell>
        <mxCell id="Ih-qkRP66JNXUkjLN9Hf-4" value="adv_scene" style="shape=tape;whiteSpace=wrap;html=1;fontFamily=Helvetica;fontSize=12;fontColor=#ffffff;align=center;strokeColor=#B20000;fillColor=#e51400;" vertex="1" parent="1">
          <mxGeometry x="600" y="420" width="120" height="60" as="geometry" />
        </mxCell>
        <mxCell id="Ih-qkRP66JNXUkjLN9Hf-20" style="edgeStyle=orthogonalEdgeStyle;rounded=0;orthogonalLoop=1;jettySize=auto;html=1;entryX=0.25;entryY=0;entryDx=0;entryDy=0;startArrow=none;startFill=0;endArrow=block;endFill=1;curved=1;exitX=1;exitY=1;exitDx=0;exitDy=0;" edge="1" parent="1" source="Ih-qkRP66JNXUkjLN9Hf-5" target="Ih-qkRP66JNXUkjLN9Hf-2">
          <mxGeometry relative="1" as="geometry" />
        </mxCell>
        <mxCell id="Ih-qkRP66JNXUkjLN9Hf-23" style="edgeStyle=orthogonalEdgeStyle;rounded=0;orthogonalLoop=1;jettySize=auto;html=1;entryX=0.25;entryY=1;entryDx=0;entryDy=0;startArrow=none;startFill=0;endArrow=block;endFill=1;curved=1;exitX=0.75;exitY=0;exitDx=0;exitDy=0;" edge="1" parent="1" source="Ih-qkRP66JNXUkjLN9Hf-5" target="Ih-qkRP66JNXUkjLN9Hf-3">
          <mxGeometry relative="1" as="geometry" />
        </mxCell>
        <mxCell id="Ih-qkRP66JNXUkjLN9Hf-27" style="edgeStyle=orthogonalEdgeStyle;rounded=0;orthogonalLoop=1;jettySize=auto;html=1;entryX=0.25;entryY=1;entryDx=0;entryDy=0;startArrow=none;startFill=0;endArrow=block;endFill=1;curved=1;" edge="1" parent="1" source="Ih-qkRP66JNXUkjLN9Hf-5" target="Ih-qkRP66JNXUkjLN9Hf-1">
          <mxGeometry relative="1" as="geometry" />
        </mxCell>
        <mxCell id="Ih-qkRP66JNXUkjLN9Hf-28" style="edgeStyle=orthogonalEdgeStyle;rounded=0;orthogonalLoop=1;jettySize=auto;html=1;entryX=0.75;entryY=1;entryDx=0;entryDy=0;startArrow=none;startFill=0;endArrow=block;endFill=1;curved=1;" edge="1" parent="1" source="Ih-qkRP66JNXUkjLN9Hf-5" target="Ih-qkRP66JNXUkjLN9Hf-8">
          <mxGeometry relative="1" as="geometry" />
        </mxCell>
        <mxCell id="Ih-qkRP66JNXUkjLN9Hf-41" style="edgeStyle=orthogonalEdgeStyle;curved=1;rounded=0;orthogonalLoop=1;jettySize=auto;html=1;entryX=0;entryY=0.5;entryDx=0;entryDy=0;startArrow=none;startFill=0;endArrow=block;endFill=1;" edge="1" parent="1" source="Ih-qkRP66JNXUkjLN9Hf-5" target="Ih-qkRP66JNXUkjLN9Hf-6">
          <mxGeometry relative="1" as="geometry">
            <Array as="points">
              <mxPoint x="270" y="650" />
            </Array>
          </mxGeometry>
        </mxCell>
        <mxCell id="Ih-qkRP66JNXUkjLN9Hf-5" value="adv_keep_alive" style="shape=tape;whiteSpace=wrap;html=1;fontFamily=Helvetica;fontSize=12;fontColor=#ffffff;align=center;strokeColor=#B20000;fillColor=#e51400;" vertex="1" parent="1">
          <mxGeometry x="210" y="380" width="120" height="60" as="geometry" />
        </mxCell>
        <mxCell id="Ih-qkRP66JNXUkjLN9Hf-6" value="adv_network" style="ellipse;whiteSpace=wrap;html=1;aspect=fixed;fontFamily=Helvetica;fontSize=12;fontColor=#ffffff;align=center;strokeColor=#2D7600;fillColor=#60a917;" vertex="1" parent="1">
          <mxGeometry x="480" y="620" width="120" height="60" as="geometry" />
        </mxCell>
        <mxCell id="Ih-qkRP66JNXUkjLN9Hf-15" style="edgeStyle=orthogonalEdgeStyle;rounded=0;orthogonalLoop=1;jettySize=auto;html=1;exitX=0.5;exitY=0;exitDx=0;exitDy=0;entryX=0.5;entryY=1;entryDx=0;entryDy=0;startArrow=none;startFill=0;endArrow=block;endFill=1;curved=1;" edge="1" parent="1" source="Ih-qkRP66JNXUkjLN9Hf-7" target="Ih-qkRP66JNXUkjLN9Hf-1">
          <mxGeometry relative="1" as="geometry" />
        </mxCell>
        <mxCell id="Ih-qkRP66JNXUkjLN9Hf-18" style="edgeStyle=orthogonalEdgeStyle;rounded=0;orthogonalLoop=1;jettySize=auto;html=1;entryX=0;entryY=0.5;entryDx=0;entryDy=0;startArrow=none;startFill=0;endArrow=block;endFill=1;curved=1;" edge="1" parent="1" source="Ih-qkRP66JNXUkjLN9Hf-7" target="Ih-qkRP66JNXUkjLN9Hf-3">
          <mxGeometry relative="1" as="geometry" />
        </mxCell>
        <mxCell id="Ih-qkRP66JNXUkjLN9Hf-19" style="edgeStyle=orthogonalEdgeStyle;rounded=0;orthogonalLoop=1;jettySize=auto;html=1;exitX=0.75;exitY=0;exitDx=0;exitDy=0;entryX=0.25;entryY=1;entryDx=0;entryDy=0;startArrow=none;startFill=0;endArrow=block;endFill=1;curved=1;" edge="1" parent="1" source="Ih-qkRP66JNXUkjLN9Hf-7" target="Ih-qkRP66JNXUkjLN9Hf-8">
          <mxGeometry relative="1" as="geometry" />
        </mxCell>
        <mxCell id="Ih-qkRP66JNXUkjLN9Hf-7" value="adv_display" style="rounded=1;whiteSpace=wrap;html=1;fillColor=#d5e8d4;strokeColor=#82b366;" vertex="1" parent="1">
          <mxGeometry x="160" y="190" width="120" height="60" as="geometry" />
        </mxCell>
        <mxCell id="Ih-qkRP66JNXUkjLN9Hf-12" style="edgeStyle=orthogonalEdgeStyle;rounded=0;orthogonalLoop=1;jettySize=auto;html=1;exitX=0;exitY=0.5;exitDx=0;exitDy=0;entryX=1;entryY=0.5;entryDx=0;entryDy=0;startArrow=none;startFill=0;endArrow=block;endFill=1;curved=1;" edge="1" parent="1" source="Ih-qkRP66JNXUkjLN9Hf-8" target="Ih-qkRP66JNXUkjLN9Hf-1">
          <mxGeometry relative="1" as="geometry" />
        </mxCell>
        <mxCell id="Ih-qkRP66JNXUkjLN9Hf-8" value="adv_common" style="shape=hexagon;perimeter=hexagonPerimeter2;whiteSpace=wrap;html=1;fixedSize=1;fontFamily=Helvetica;fontSize=12;fontColor=#000000;align=center;fillColor=#dae8fc;" vertex="1" parent="1">
          <mxGeometry x="430" y="10" width="120" height="60" as="geometry" />
        </mxCell>
      </root>
    </mxGraphModel>
  </diagram>
</mxfile>
